<svg width="1440" height="489" viewBox="0 0 1440 489" fill="none" xmlns="http://www.w3.org/2000/svg">
<path d="M-29 360H1523V541H-29V360Z" fill="#A3433B"/>
<path d="M-29 360H1523V541H-29V360Z" fill="url(#paint0_linear_7_9)" fill-opacity="0.2"/>
<path fill-rule="evenodd" clip-rule="evenodd" d="M0 0H8C17 0 33 0 50 58C66 115 83 231 99 259C116 288 132 231 149 180C166 130 182 87 199 108C215 130 232 216 248 245C265 274 281 245 298 238C314 231 331 245 348 231C364 216 381 173 397 187C414 202 430 274 447 274C463 274 480 202 497 195C513 187 530 245 546 281C563 317 579 331 596 339C612 346 629 346 646 317C662 288 679 231 695 231C712 231 728 288 745 281C761 274 778 202 794 151C811 101 828 72 844 65C861 58 877 72 894 115C910 159 927 231 943 281C960 331 977 360 993 324C1010 288 1026 187 1043 144C1059 101 1076 115 1092 115C1109 115 1126 101 1142 108C1159 115 1175 144 1192 144C1208 144 1225 115 1241 123C1258 130 1274 173 1291 173C1308 173 1324 130 1341 108C1357 87 1374 87 1390 79C1407 72 1423 58 1432 51L1440 43V389H1432C1423 389 1407 389 1390 389C1374 389 1357 389 1341 389C1324 389 1308 389 1291 389C1274 389 1258 389 1241 389C1225 389 1208 389 1192 389C1175 389 1159 389 1142 389C1126 389 1109 389 1092 389C1076 389 1059 389 1043 389C1026 389 1010 389 993 389C977 389 960 389 943 389C927 389 910 389 894 389C877 389 861 389 844 389C828 389 811 389 794 389C778 389 761 389 745 389C728 389 712 389 695 389C679 389 662 389 646 389C629 389 612 389 596 389C579 389 563 389 546 389C530 389 513 389 497 389C480 389 463 389 447 389C430 389 414 389 397 389C381 389 364 389 348 389C331 389 314 389 298 389C281 389 265 389 248 389C232 389 215 389 199 389C182 389 166 389 149 389C132 389 116 389 99 389C83 389 66 389 50 389C33 389 17 389 8 389H0V0Z" fill="#A3433B"/>
<path fill-rule="evenodd" clip-rule="evenodd" d="M0 0H8C17 0 33 0 50 58C66 115 83 231 99 259C116 288 132 231 149 180C166 130 182 87 199 108C215 130 232 216 248 245C265 274 281 245 298 238C314 231 331 245 348 231C364 216 381 173 397 187C414 202 430 274 447 274C463 274 480 202 497 195C513 187 530 245 546 281C563 317 579 331 596 339C612 346 629 346 646 317C662 288 679 231 695 231C712 231 728 288 745 281C761 274 778 202 794 151C811 101 828 72 844 65C861 58 877 72 894 115C910 159 927 231 943 281C960 331 977 360 993 324C1010 288 1026 187 1043 144C1059 101 1076 115 1092 115C1109 115 1126 101 1142 108C1159 115 1175 144 1192 144C1208 144 1225 115 1241 123C1258 130 1274 173 1291 173C1308 173 1324 130 1341 108C1357 87 1374 87 1390 79C1407 72 1423 58 1432 51L1440 43V389H1432C1423 389 1407 389 1390 389C1374 389 1357 389 1341 389C1324 389 1308 389 1291 389C1274 389 1258 389 1241 389C1225 389 1208 389 1192 389C1175 389 1159 389 1142 389C1126 389 1109 389 1092 389C1076 389 1059 389 1043 389C1026 389 1010 389 993 389C977 389 960 389 943 389C927 389 910 389 894 389C877 389 861 389 844 389C828 389 811 389 794 389C778 389 761 389 745 389C728 389 712 389 695 389C679 389 662 389 646 389C629 389 612 389 596 389C579 389 563 389 546 389C530 389 513 389 497 389C480 389 463 389 447 389C430 389 414 389 397 389C381 389 364 389 348 389C331 389 314 389 298 389C281 389 265 389 248 389C232 389 215 389 199 389C182 389 166 389 149 389C132 389 116 389 99 389C83 389 66 389 50 389C33 389 17 389 8 389H0V0Z" fill="url(#paint1_linear_7_9)" fill-opacity="0.2"/>
<path d="M-29 360H1523V541H-29V360Z"/>
<path fill-rule="evenodd" clip-rule="evenodd" d="M0 0H8C17 0 33 0 50 58C66 115 83 231 99 259C116 288 132 231 149 180C166 130 182 87 199 108C215 130 232 216 248 245C265 274 281 245 298 238C314 231 331 245 348 231C364 216 381 173 397 187C414 202 430 274 447 274C463 274 480 202 497 195C513 187 530 245 546 281C563 317 579 331 596 339C612 346 629 346 646 317C662 288 679 231 695 231C712 231 728 288 745 281C761 274 778 202 794 151C811 101 828 72 844 65C861 58 877 72 894 115C910 159 927 231 943 281C960 331 977 360 993 324C1010 288 1026 187 1043 144C1059 101 1076 115 1092 115C1109 115 1126 101 1142 108C1159 115 1175 144 1192 144C1208 144 1225 115 1241 123C1258 130 1274 173 1291 173C1308 173 1324 130 1341 108C1357 87 1374 87 1390 79C1407 72 1423 58 1432 51L1440 43V389H1432C1423 389 1407 389 1390 389C1374 389 1357 389 1341 389C1324 389 1308 389 1291 389C1274 389 1258 389 1241 389C1225 389 1208 389 1192 389C1175 389 1159 389 1142 389C1126 389 1109 389 1092 389C1076 389 1059 389 1043 389C1026 389 1010 389 993 389C977 389 960 389 943 389C927 389 910 389 894 389C877 389 861 389 844 389C828 389 811 389 794 389C778 389 761 389 745 389C728 389 712 389 695 389C679 389 662 389 646 389C629 389 612 389 596 389C579 389 563 389 546 389C530 389 513 389 497 389C480 389 463 389 447 389C430 389 414 389 397 389C381 389 364 389 348 389C331 389 314 389 298 389C281 389 265 389 248 389C232 389 215 389 199 389C182 389 166 389 149 389C132 389 116 389 99 389C83 389 66 389 50 389C33 389 17 389 8 389H0V0Z" />
<defs>
<linearGradient id="paint0_linear_7_9" x1="747" y1="0" x2="747" y2="395.496" gradientUnits="userSpaceOnUse">
<stop stop-color="#A3433B"/>
<stop offset="0.0001" stop-color="#FF0000"/>
<stop offset="1"/>
</linearGradient>
<linearGradient id="paint1_linear_7_9" x1="747" y1="0" x2="747" y2="395.496" gradientUnits="userSpaceOnUse">
<stop stop-color="#A3433B"/>
<stop offset="0.0001" stop-color="#FF0000"/>
<stop offset="1"/>
</linearGradient>
</defs>
</svg>
