<?xml version="1.0" encoding="utf-8"?>
<!-- Generator: Adobe Illustrator 26.0.2, SVG Export Plug-In . SVG Version: 6.00 Build 0)  -->
<svg version="1.1" id="Layer_1" xmlns="http://www.w3.org/2000/svg" xmlns:xlink="http://www.w3.org/1999/xlink" x="0px" y="0px"
	 viewBox="0 0 1440 447" style="enable-background:new 0 0 1440 447;" xml:space="preserve">
<style type="text/css">
	.st0{fill:#A3433B;}
	.st1{fill:url(#SVGID_1_);fill-opacity:0.2;}
	.st2{fill-rule:evenodd;clip-rule:evenodd;fill:#A3433B;}
	
		.st3{fill-rule:evenodd;clip-rule:evenodd;fill:url(#SVGID_00000024719120290514804080000008625565729095673255_);fill-opacity:0.2;}
	.st4{fill:none;}
</style>
<path class="st0" d="M-29,318h1552v181H-29V318z"/>
<linearGradient id="SVGID_1_" gradientUnits="userSpaceOnUse" x1="747" y1="489.2756" x2="747" y2="93.7796" gradientTransform="matrix(1 0 0 -1 0 447.2756)">
	<stop  offset="0" style="stop-color:#A3433B"/>
	<stop  offset="1.000000e-04" style="stop-color:#FF0000"/>
	<stop  offset="1" style="stop-color:#000000"/>
</linearGradient>
<path class="st1" d="M-29,318h1552v181H-29V318z"/>
<path class="st2" d="M0,1c3.1-0.1,8,0,8,0c6.8,0,18.8,3.8,27.8,11.9c4.5,4.1,7.7,9.5,9.3,15.4C60.5,84.6,75.5,156.9,91,184
	c17,29,41,5,58-46c17-50,33-93,50-72c16,22,33,108,49,137c17,29,33,0,50-7c16-7,33,7,50-7c16-15,33-58,49-44c17,15,33,87,50,87
	c16,0,33-72,50-79c16-8,33,50,49,86c17,36,33,50,50,58c16,7,33,7,50-22c16-29,33-86,49-86c17,0,33,57,50,50c16-7,33-79,49-130
	c17-50,34-79,50-86c17-7,33,7,50,50c16,44,33,116,49,166c17,50,34,79,50,43c17-36,33-137,50-180c16-43,33-29,49-29c17,0,34-14,50-7
	c17,7,33,36,50,36c16,0,33-29,49-21c17,7,33,50,50,50s33-43,50-65c16-21,33-21,49-29c12.4-5.1,19.4-16.8,26.6-25.4
	c4.1-4.8,9.6-8.2,15.8-9.5L1440,1v346h-8c-9,0-25,0-42,0c-16,0-33,0-49,0c-17,0-33,0-50,0s-33,0-50,0c-16,0-33,0-49,0
	c-17,0-33,0-50,0c-16,0-33,0-50,0c-16,0-33,0-49,0c-17,0-33,0-50,0c-16,0-33,0-50,0c-16,0-33,0-49,0c-17,0-33,0-50,0
	c-16,0-33,0-50,0c-16,0-33,0-49,0c-17,0-33,0-50,0c-16,0-33,0-49,0c-17,0-34,0-50,0c-17,0-33,0-50,0c-16,0-33,0-49,0
	c-17,0-34,0-50,0c-17,0-33,0-50,0c-16,0-33,0-49,0c-17,0-34,0-50,0c-17,0-33,0-50,0c-16,0-33,0-49,0c-17,0-33,0-50,0s-33,0-50,0
	c-16,0-33,0-49,0c-17,0-33,0-42,0H0C0,347-151.9,4.1,0,1z"/>
<linearGradient id="SVGID_00000090982661532014695100000014874181953695984285_" gradientUnits="userSpaceOnUse" x1="686.2484" y1="489.2756" x2="686.2484" y2="93.7796" gradientTransform="matrix(1 0 0 -1 0 447.2756)">
	<stop  offset="0" style="stop-color:#A3433B"/>
	<stop  offset="1.000000e-04" style="stop-color:#FF0000"/>
	<stop  offset="1" style="stop-color:#000000"/>
</linearGradient>
<path style="fill-rule:evenodd;clip-rule:evenodd;fill:url(#SVGID_00000090982661532014695100000014874181953695984285_);fill-opacity:0.2;" d="
	M0,1c3.1-0.1,8,0,8,0c2.9,0,6.6,0.7,10.5,2.1C32.4,8,42.8,19.7,46.6,33.9C61.5,89.3,76,157.8,91,184c17,29,41,5,58-46
	c17-50,33-93,50-72c16,22,33,108,49,137c17,29,33,0,50-7c16-7,33,7,50-7c16-15,33-58,49-44c17,15,33,87,50,87c16,0,33-72,50-79
	c16-8,33,50,49,86c17,36,33,50,50,58c16,7,33,7,50-22c16-29,33-86,49-86c17,0,33,57,50,50c16-7,33-79,49-130c17-50,34-79,50-86
	c17-7,33,7,50,50c16,44,33,116,49,166c17,50,34,79,50,43c17-36,33-137,50-180c16-43,33-29,49-29c17,0,34-14,50-7c17,7,33,36,50,36
	c16,0,33-29,49-21c17,7,33,50,50,50s33-43,50-65c16-21,33-21,49-29c11.7-4.8,19.8-16.4,26.6-25.4c4.7-6.2,11.8-10,19.6-10.4L1440,1
	v346h-8c-9,0-25,0-42,0c-16,0-33,0-49,0c-17,0-33,0-50,0s-33,0-50,0c-16,0-33,0-49,0c-17,0-33,0-50,0c-16,0-33,0-50,0
	c-16,0-33,0-49,0c-17,0-33,0-50,0c-16,0-33,0-50,0c-16,0-33,0-49,0c-17,0-33,0-50,0c-16,0-33,0-50,0c-16,0-33,0-49,0
	c-17,0-33,0-50,0c-16,0-33,0-49,0c-17,0-34,0-50,0c-17,0-33,0-50,0c-16,0-33,0-49,0c-17,0-34,0-50,0c-17,0-33,0-50,0
	c-16,0-33,0-49,0c-17,0-34,0-50,0c-17,0-33,0-50,0c-16,0-33,0-49,0c-17,0-33,0-50,0s-33,0-50,0c-16,0-33,0-49,0c-17,0-33,0-42,0H0
	C0,347-151.9,4.1,0,1z"/>
<path class="st4" d="M-29,318h1552v181H-29V318z"/>
<path class="st4" d="M0,1c3.1-0.1,8,0,8,0c2.9,0,6.6,0.7,10.5,2.1C32.4,8,42.8,19.7,46.6,33.9C61.5,89.3,76,157.8,91,184
	c17,29,41,5,58-46c17-50,33-93,50-72c16,22,33,108,49,137c17,29,33,0,50-7c16-7,33,7,50-7c16-15,33-58,49-44c17,15,33,87,50,87
	c16,0,33-72,50-79c16-8,33,50,49,86c17,36,33,50,50,58c16,7,33,7,50-22c16-29,33-86,49-86c17,0,33,57,50,50c16-7,33-79,49-130
	c17-50,34-79,50-86c17-7,33,7,50,50c16,44,33,116,49,166c17,50,34,79,50,43c17-36,33-137,50-180c16-43,33-29,49-29c17,0,34-14,50-7
	c17,7,33,36,50,36c16,0,33-29,49-21c17,7,33,50,50,50s33-43,50-65c16-21,33-21,49-29c17-7,33-21,42-28l8-8v346h-8c-9,0-25,0-42,0
	c-16,0-33,0-49,0c-17,0-33,0-50,0s-33,0-50,0c-16,0-33,0-49,0c-17,0-33,0-50,0c-16,0-33,0-50,0c-16,0-33,0-49,0c-17,0-33,0-50,0
	c-16,0-33,0-50,0c-16,0-33,0-49,0c-17,0-33,0-50,0c-16,0-33,0-50,0c-16,0-33,0-49,0c-17,0-33,0-50,0c-16,0-33,0-49,0
	c-17,0-34,0-50,0c-17,0-33,0-50,0c-16,0-33,0-49,0c-17,0-34,0-50,0c-17,0-33,0-50,0c-16,0-33,0-49,0c-17,0-34,0-50,0
	c-17,0-33,0-50,0c-16,0-33,0-49,0c-17,0-33,0-50,0s-33,0-50,0c-16,0-33,0-49,0c-17,0-33,0-42,0H0C0,347-151.9,4.1,0,1z"/>
<path class="st4" d="M-1465.6,318h1552v181h-1552V318z"/>
<path class="st4" d="M-1436.6,1c3.1-0.1,8,0,8,0c2.9,0,6.6,0.7,10.5,2.1c13.9,4.9,24.3,16.6,28.1,30.8
	c14.9,55.4,29.4,123.9,44.4,150.1c17,29,41,5,58-46c17-50,33-93,50-72c16,22,33,108,49,137c17,29,33,0,50-7c16-7,33,7,50-7
	c16-15,33-58,49-44c17,15,33,87,50,87c16,0,33-72,50-79c16-8,33,50,49,86c17,36,33,50,50,58c16,7,33,7,50-22c16-29,33-86,49-86
	c17,0,33,57,50,50c16-7,33-79,49-130c17-50,34-79,50-86c17-7,33,7,50,50c16,44,33,116,49,166c17,50,34,79,50,43c17-36,33-137,50-180
	c16-43,33-29,49-29c17,0,34-14,50-7c17,7,33,36,50,36c16,0,33-29,49-21c17,7,33,50,50,50s33-43,50-65c16-21,33-21,49-29
	c17-7,33-21,42-28l8-8v346h-8c-9,0-25,0-42,0c-16,0-33,0-49,0c-17,0-33,0-50,0s-33,0-50,0c-16,0-33,0-49,0c-17,0-33,0-50,0
	c-16,0-33,0-50,0c-16,0-33,0-49,0c-17,0-33,0-50,0c-16,0-33,0-50,0c-16,0-33,0-49,0c-17,0-33,0-50,0c-16,0-33,0-50,0
	c-16,0-33,0-49,0c-17,0-33,0-50,0c-16,0-33,0-49,0c-17,0-34,0-50,0c-17,0-33,0-50,0c-16,0-33,0-49,0c-17,0-34,0-50,0
	c-17,0-33,0-50,0c-16,0-33,0-49,0c-17,0-34,0-50,0c-17,0-33,0-50,0c-16,0-33,0-49,0c-17,0-33,0-50,0s-33,0-50,0c-16,0-33,0-49,0
	c-17,0-33,0-42,0h-8C-1436.6,347-1588.5,4.1-1436.6,1z"/>
</svg>
