<svg
  width="100"
  height="100"
  viewBox="0 0 100 100"
  fill="none"
  xmlns="http://www.w3.org/2000/svg"
>
  <mask
    id="mask0_2_7"
    style="mask-type:alpha"
    maskUnits="userSpaceOnUse"
    x="0"
    y="0"
    width="100"
    height="100"
  >
    <circle cx="50" cy="50" r="50" fill="#C4C4C4" />
  </mask>
  <g mask="url(#mask0_2_7)">
    <circle cx="50" cy="50" r="50" fill="#DCE6EF" />
    <circle
      cx="50"
      cy="50"
      r="50"
      fill="url(#paint0_linear_2_7)"
      fill-opacity="0.2"
    />
    <path
      fill-rule="evenodd"
      clip-rule="evenodd"
      d="M-8.125 69.3502L-7.36812 68.0961C-6.71937 66.8419 -5.20563 64.3337 -3.8 64.3337C-2.39438 64.3337 -0.880626 66.8419 0.525 68.7231C1.93062 70.6043 3.44438 71.8585 4.85 69.9773C6.25563 68.0961 7.76937 63.0795 9.175 58.6901C10.5806 54.3006 12.0944 50.5382 13.5 49.9112C14.9056 49.2841 16.4194 51.7924 17.825 56.1818C19.2306 60.5713 20.7444 66.8419 22.15 66.8419C23.5556 66.8419 25.0694 60.5713 26.475 59.9442C27.8806 59.3172 29.3944 64.3337 30.8 62.4525C32.2056 60.5713 33.7194 51.7924 35.125 51.1653C36.5306 50.5382 38.0444 58.063 39.45 57.436C40.8556 56.8089 42.3694 48.03 43.775 48.657C45.1806 49.2841 46.6944 59.3172 48.1 62.4525C49.5056 65.5878 51.0194 61.8254 52.425 60.5713C53.8306 59.3172 55.3444 60.5713 56.75 61.8254C58.1556 63.0795 59.6694 64.3337 61.075 66.8419C62.4806 69.3502 63.9944 73.1126 65.4 72.4855C66.8056 71.8585 68.3194 66.8419 69.725 61.8254C71.1306 56.8089 72.6444 51.7924 74.05 53.6736C75.4556 55.5548 76.9694 64.3337 78.375 63.7066C79.7806 63.0795 81.2944 53.0465 82.7 50.5382C84.1056 48.03 85.6194 53.0465 87.025 53.6736C88.4306 54.3006 89.9444 50.5382 91.35 51.1653C92.7556 51.7924 94.2694 56.8089 95.675 58.063C97.0806 59.3172 98.5944 56.8089 99.2431 55.5548L100 54.3006V76.875H99.2431C98.5944 76.875 97.0806 76.875 95.675 76.875C94.2694 76.875 92.7556 76.875 91.35 76.875C89.9444 76.875 88.4306 76.875 87.025 76.875C85.6194 76.875 84.1056 76.875 82.7 76.875C81.2944 76.875 79.7806 76.875 78.375 76.875C76.9694 76.875 75.4556 76.875 74.05 76.875C72.6444 76.875 71.1306 76.875 69.725 76.875C68.3194 76.875 66.8056 76.875 65.4 76.875C63.9944 76.875 62.4806 76.875 61.075 76.875C59.6694 76.875 58.1556 76.875 56.75 76.875C55.3444 76.875 53.8306 76.875 52.425 76.875C51.0194 76.875 49.5056 76.875 48.1 76.875C46.6944 76.875 45.1806 76.875 43.775 76.875C42.3694 76.875 40.8556 76.875 39.45 76.875C38.0444 76.875 36.5306 76.875 35.125 76.875C33.7194 76.875 32.2056 76.875 30.8 76.875C29.3944 76.875 27.8806 76.875 26.475 76.875C25.0694 76.875 23.5556 76.875 22.15 76.875C20.7444 76.875 19.2306 76.875 17.825 76.875C16.4194 76.875 14.9056 76.875 13.5 76.875C12.0944 76.875 10.5806 76.875 9.175 76.875C7.76937 76.875 6.25563 76.875 4.85 76.875C3.44438 76.875 1.93062 76.875 0.525 76.875C-0.880626 76.875 -2.39438 76.875 -3.8 76.875C-5.20563 76.875 -6.71937 76.875 -7.36812 76.875H-8.125V69.3502Z"
      fill="#A3433B"
    />
    <path
      fill-rule="evenodd"
      clip-rule="evenodd"
      d="M-8.125 69.3502L-7.36812 68.0961C-6.71937 66.8419 -5.20563 64.3337 -3.8 64.3337C-2.39438 64.3337 -0.880626 66.8419 0.525 68.7231C1.93062 70.6043 3.44438 71.8585 4.85 69.9773C6.25563 68.0961 7.76937 63.0795 9.175 58.6901C10.5806 54.3006 12.0944 50.5382 13.5 49.9112C14.9056 49.2841 16.4194 51.7924 17.825 56.1818C19.2306 60.5713 20.7444 66.8419 22.15 66.8419C23.5556 66.8419 25.0694 60.5713 26.475 59.9442C27.8806 59.3172 29.3944 64.3337 30.8 62.4525C32.2056 60.5713 33.7194 51.7924 35.125 51.1653C36.5306 50.5382 38.0444 58.063 39.45 57.436C40.8556 56.8089 42.3694 48.03 43.775 48.657C45.1806 49.2841 46.6944 59.3172 48.1 62.4525C49.5056 65.5878 51.0194 61.8254 52.425 60.5713C53.8306 59.3172 55.3444 60.5713 56.75 61.8254C58.1556 63.0795 59.6694 64.3337 61.075 66.8419C62.4806 69.3502 63.9944 73.1126 65.4 72.4855C66.8056 71.8585 68.3194 66.8419 69.725 61.8254C71.1306 56.8089 72.6444 51.7924 74.05 53.6736C75.4556 55.5548 76.9694 64.3337 78.375 63.7066C79.7806 63.0795 81.2944 53.0465 82.7 50.5382C84.1056 48.03 85.6194 53.0465 87.025 53.6736C88.4306 54.3006 89.9444 50.5382 91.35 51.1653C92.7556 51.7924 94.2694 56.8089 95.675 58.063C97.0806 59.3172 98.5944 56.8089 99.2431 55.5548L100 54.3006V76.875H99.2431C98.5944 76.875 97.0806 76.875 95.675 76.875C94.2694 76.875 92.7556 76.875 91.35 76.875C89.9444 76.875 88.4306 76.875 87.025 76.875C85.6194 76.875 84.1056 76.875 82.7 76.875C81.2944 76.875 79.7806 76.875 78.375 76.875C76.9694 76.875 75.4556 76.875 74.05 76.875C72.6444 76.875 71.1306 76.875 69.725 76.875C68.3194 76.875 66.8056 76.875 65.4 76.875C63.9944 76.875 62.4806 76.875 61.075 76.875C59.6694 76.875 58.1556 76.875 56.75 76.875C55.3444 76.875 53.8306 76.875 52.425 76.875C51.0194 76.875 49.5056 76.875 48.1 76.875C46.6944 76.875 45.1806 76.875 43.775 76.875C42.3694 76.875 40.8556 76.875 39.45 76.875C38.0444 76.875 36.5306 76.875 35.125 76.875C33.7194 76.875 32.2056 76.875 30.8 76.875C29.3944 76.875 27.8806 76.875 26.475 76.875C25.0694 76.875 23.5556 76.875 22.15 76.875C20.7444 76.875 19.2306 76.875 17.825 76.875C16.4194 76.875 14.9056 76.875 13.5 76.875C12.0944 76.875 10.5806 76.875 9.175 76.875C7.76937 76.875 6.25563 76.875 4.85 76.875C3.44438 76.875 1.93062 76.875 0.525 76.875C-0.880626 76.875 -2.39438 76.875 -3.8 76.875C-5.20563 76.875 -6.71937 76.875 -7.36812 76.875H-8.125V69.3502Z"
      fill="url(#paint1_linear_2_7)"
      fill-opacity="0.2"
    />
    <path d="M-9 73H117V117.875H-9V73Z" fill="#A3433B" />
    <path
      d="M-9 73H117V117.875H-9V73Z"
      fill="url(#paint2_linear_2_7)"
      fill-opacity="0.2"
    />
  </g>
  <defs>
    <linearGradient
      id="paint0_linear_2_7"
      x1="50"
      y1="0"
      x2="50"
      y2="64.5625"
      gradientUnits="userSpaceOnUse"
    >
      <stop stop-color="#0088FF" />
      <stop offset="1" stop-color="#DCE6EF" />
    </linearGradient>
    <linearGradient
      id="paint1_linear_2_7"
      x1="54"
      y1="48.625"
      x2="54"
      y2="99.25"
      gradientUnits="userSpaceOnUse"
    >
      <stop stop-color="#A3433B" />
      <stop offset="0.0001" stop-color="#FF0000" />
      <stop offset="1" />
    </linearGradient>
    <linearGradient
      id="paint2_linear_2_7"
      x1="54"
      y1="48.625"
      x2="54"
      y2="99.25"
      gradientUnits="userSpaceOnUse"
    >
      <stop stop-color="#A3433B" />
      <stop offset="0.0001" stop-color="#FF0000" />
      <stop offset="1" />
    </linearGradient>
  </defs>
</svg>